<svg preserveAspectRatio="none" overflow="visible" style="display: block;" width="28" height="28" viewBox="0 0 28 28" fill="none" xmlns="http://www.w3.org/2000/svg">
<g id="Arrows/arrow-up-right">
<path id="Icon (Stroke)" d="M8.99252 8.26102C8.99252 7.77785 9.3843 7.38625 9.86743 7.38611L19.8096 7.3853C20.0415 7.3853 20.2643 7.47764 20.4283 7.64149C20.5924 7.80559 20.6853 8.02895 20.6853 8.26102L20.6845 18.0614C20.6845 18.5447 20.2929 18.9363 19.8096 18.9363C19.3266 18.9361 18.9347 18.5445 18.9347 18.0614L18.9347 10.3726L8.87893 20.4283C8.53722 20.77 7.9832 20.77 7.64149 20.4283C7.30018 20.0866 7.29992 19.5325 7.64149 19.1909L17.6965 9.13592L9.86743 9.13592C9.38439 9.13578 8.99267 8.74406 8.99252 8.26102Z" fill="#009D78"/>
</g>
</svg>
